<svg width="719" height="719" viewBox="0 0 719 719" fill="none" xmlns="http://www.w3.org/2000/svg">
<path d="M601.365 24.2256C659.693 24.2256 706.996 68.8655 707 123.928V459.529H706.197C697.453 579.925 610.038 678.141 495.75 701.633V123.928C495.756 68.8672 543.037 24.2282 601.365 24.2256Z" fill="#262626"/>
<path d="M72.9907 24.3456C125.34 -2.57339 187.382 17.3203 211.556 68.76L392.118 452.985L507.668 698.882C486.953 704.167 465.263 707.001 442.93 707.001C338.253 706.997 247.801 645.323 205.089 555.9L204.666 555.024C203.95 553.51 203.262 551.984 202.574 550.453L202.553 550.474L21.9903 166.228C-2.18145 114.789 20.6428 51.264 72.9907 24.3456Z" fill="#262626"/>
</svg>
